<?xml version="1.0" standalone="no"?>
<svg viewBox="0 0 1024 1024" version="1.1" xmlns="http://www.w3.org/2000/svg">
    <path d="M512 213.333333c117.333333 0 213.333333 96 213.333333 213.333334s-96 213.333333-213.333333 213.333333-213.333333-96-213.333333-213.333333 96-213.333333 213.333333-213.333334z" fill="#4CAF50"/>
    <path d="M512 298.666667c-70.4 0-128 57.6-128 128s57.6 128 128 128 128-57.6 128-128-57.6-128-128-128z m0 85.333333c23.466667 0 42.666667 19.2 42.666667 42.666667s-19.2 42.666667-42.666667 42.666666-42.666667-19.2-42.666667-42.666666 19.2-42.666667 42.666667-42.666667z" fill="#81C784"/>
</svg> 