<?xml version="1.0" standalone="no"?>
<svg viewBox="0 0 1024 1024" version="1.1" xmlns="http://www.w3.org/2000/svg">
    <path d="M149.333333 213.333333l46.933334 96h679.466666c25.6 0 42.666667 21.333333 38.4 44.8l-81.066666 293.333334c-4.266667 17.066667-21.333333 29.866667-42.666667 29.866666H371.2l-89.6-256L234.666667 298.666667 149.333333 213.333333z" fill="#E02E24"/>
    <path d="M384 725.333333m-64 0a64 64 0 1 0 128 0 64 64 0 1 0-128 0Z" fill="#E02E24"/>
    <path d="M725.333333 725.333333m-64 0a64 64 0 1 0 128 0 64 64 0 1 0-128 0Z" fill="#E02E24"/>
</svg> 